<svg width="48" height="48" viewBox="0 0 48 48" fill="none" xmlns="http://www.w3.org/2000/svg">
<circle cx="24" cy="24" r="24" fill="#7bAE37"/>
<path d="M32.0003 22.8572H25.1431V16C25.1431 15.6969 25.0227 15.4062 24.8084 15.1919C24.5941 14.9776 24.3034 14.8572 24.0003 14.8572C23.6972 14.8572 23.4065 14.9776 23.1922 15.1919C22.9778 15.4062 22.8574 15.6969 22.8574 16V22.8572H16.0003C15.6972 22.8572 15.4065 22.9776 15.1922 23.1919C14.9778 23.4062 14.8574 23.6969 14.8574 24C14.8574 24.3031 14.9778 24.5938 15.1922 24.8082C15.4065 25.0225 15.6972 25.1429 16.0003 25.1429H22.8574V32C22.8574 32.3031 22.9778 32.5938 23.1922 32.8082C23.4065 33.0225 23.6972 33.1429 24.0003 33.1429C24.3034 33.1429 24.5941 33.0225 24.8084 32.8082C25.0227 32.5938 25.1431 32.3031 25.1431 32V25.1429H32.0003C32.3034 25.1429 32.5941 25.0225 32.8084 24.8082C33.0227 24.5938 33.1431 24.3031 33.1431 24C33.1431 23.6969 33.0227 23.4062 32.8084 23.1919C32.5941 22.9776 32.3034 22.8572 32.0003 22.8572Z" fill="white"/>
</svg>
