<svg width="32" height="32" viewBox="0 0 32 32" fill="none" xmlns="http://www.w3.org/2000/svg">
<path d="M16 2.66669C8.64002 2.66669 2.66669 8.64002 2.66669 16C2.66669 23.36 8.64002 29.3334 16 29.3334C23.36 29.3334 29.3334 23.36 29.3334 16C29.3334 8.64002 23.36 2.66669 16 2.66669ZM20.6667 17H13.7467L16.04 19.2934C16.4267 19.68 16.4267 20.32 16.04 20.7067C15.84 20.9067 15.5867 21 15.3334 21C15.08 21 14.8267 20.9067 14.6267 20.7067L10.6267 16.7067C10.24 16.32 10.24 15.68 10.6267 15.2934L14.6267 11.2934C15.0134 10.9067 15.6534 10.9067 16.04 11.2934C16.4267 11.68 16.4267 12.32 16.04 12.7067L13.7467 15H20.6667C21.2134 15 21.6667 15.4534 21.6667 16C21.6667 16.5467 21.2134 17 20.6667 17Z" fill="#7bAE37"/>
</svg>
