
        <svg xmlns="http://www.w3.org/2000/svg" xmlns:xlink="http://www.w3.org/1999/xlink" version="1.1" width="3171.4285714285716" height="2674.4990275137925" viewBox="0 0 3171.4285714285716 2674.4990275137925">
			
			<g transform="scale(8.571428571428571) translate(10, 10)">
				<defs id="SvgjsDefs1027"/><g id="SvgjsG1028" featureKey="Wg4LIr-0" transform="matrix(13.43570047744121,0,0,13.43570047744121,95.59500902512703,-73.31862350201288)" fill="#000"><path d="M4.94 9.18 l-4.24 0 l0 -2.16 l0 0 l4.18 0 c4.46 0 4.74 6.76 0.88 7.62 c-0.28 0.08 -0.56 0.1 -0.88 0.1 l-2 0 l0 0.02 l0 5.24 l-2.18 0 l0 -7.44 l2.18 2.2 l5.28 5.24 l2.96 0 l-7.44 -7.44 l1.26 0 l0 0 c1.86 0 1.86 -3.38 0 -3.38 z"/></g><g id="SvgjsG1029" featureKey="qafomr-0" transform="matrix(3.0913265874086555,0,0,3.0913265874086555,-3.7095920522963253,185.8848302072268)" fill="#000"><path d="M9 20 l-2.86 -4.58 l-1.72 0 l0 4.58 l-3.22 0 l0 -14 l4.98 0 c3.14 0 5.22 1.9 5.22 4.82 c0 1.86 -0.88 3.26 -2.36 3.98 l3.36 5.2 l-3.4 0 z M4.42 8.96 l0 3.72 l1.56 0 c1.3 0 2.2 -0.46 2.2 -1.86 c0 -1.38 -0.9 -1.86 -2.2 -1.86 l-1.56 0 z M21.5 9.6 l3.16 0 l0 10.4 l-3.16 0 l0 -1.04 c-0.14 0.36 -1.08 1.24 -2.68 1.24 c-2.38 0 -5.12 -1.7 -5.12 -5.42 c0 -3.58 2.74 -5.36 5.12 -5.36 c1.6 0 2.54 0.92 2.68 1.14 l0 -0.96 z M19.28 17.42 c1.3 0 2.36 -0.9 2.36 -2.64 c0 -1.68 -1.06 -2.58 -2.36 -2.58 c-1.36 0 -2.52 0.92 -2.52 2.58 c0 1.72 1.16 2.64 2.52 2.64 z M40.6 9.44 c2.22 0 4.18 1.44 4.18 4.96 l0 5.6 l-3.16 0 l0 -5.5 c0 -1.32 -0.56 -2.32 -2.02 -2.32 c-1.22 0 -2.04 1.08 -2.28 2.04 l0 5.78 l-3.16 0 l0 -5.5 c0 -1.32 -0.82 -2.32 -2.02 -2.32 c-1.3 0 -2.08 0.88 -2.28 2.04 l0 5.78 l-3.16 0 l0 -10.4 l3.16 0 l0 1.9 c0.04 -0.48 1.06 -2.06 3.1 -2.06 c1.5 0 2.94 0.8 3.8 2.26 c0.24 -0.56 1.44 -2.26 3.84 -2.26 z M54.18 9.6 l3.16 0 l0 10.4 l-3.16 0 l0 -1.04 c-0.14 0.36 -1.08 1.24 -2.68 1.24 c-2.38 0 -5.12 -1.7 -5.12 -5.42 c0 -3.58 2.74 -5.36 5.12 -5.36 c1.6 0 2.54 0.92 2.68 1.14 l0 -0.96 z M51.96 17.42 c1.3 0 2.36 -0.9 2.36 -2.64 c0 -1.68 -1.06 -2.58 -2.36 -2.58 c-1.36 0 -2.52 0.92 -2.52 2.58 c0 1.72 1.16 2.64 2.52 2.64 z M66.86 5.859999999999999 l3.16 0 l0 5.08 l0 9.06 l-3.16 0 l0 -1.04 c-0.14 0.36 -1.08 1.24 -2.68 1.24 c-2.38 0 -5.12 -1.7 -5.12 -5.42 c0 -3.58 2.74 -5.36 5.12 -5.36 c1.6 0 2.54 0.92 2.68 1.14 l0 -4.7 z M64.64 17.42 c1.3 0 2.36 -0.9 2.36 -2.64 c0 -1.68 -1.06 -2.58 -2.36 -2.58 c-1.36 0 -2.52 0.92 -2.52 2.58 c0 1.72 1.16 2.64 2.52 2.64 z M83.22 6 c3.14 0 5.22 1.9 5.22 4.82 c0 2.88 -2.08 4.6 -5.22 4.6 l-1.76 0 l0 4.58 l-3.22 0 l0 -14 l4.98 0 z M83.02 12.68 c1.3 0 2.2 -0.46 2.2 -1.86 c0 -1.38 -0.9 -1.86 -2.2 -1.86 l-1.56 0 l0 3.72 l1.56 0 z M97.63999999999999 9.6 l3.16 0 l0 10.4 l-3.16 0 l0 -1.04 c-0.14 0.36 -1.08 1.24 -2.68 1.24 c-2.38 0 -5.12 -1.7 -5.12 -5.42 c0 -3.58 2.74 -5.36 5.12 -5.36 c1.6 0 2.54 0.92 2.68 1.14 l0 -0.96 z M95.41999999999999 17.42 c1.3 0 2.36 -0.9 2.36 -2.64 c0 -1.68 -1.06 -2.58 -2.36 -2.58 c-1.36 0 -2.52 0.92 -2.52 2.58 c0 1.72 1.16 2.64 2.52 2.64 z M111.28 9.56 l3.14 0 l-6.36 14.24 l-3.16 0 l1.92 -4.16 l-4.5 -10.08 l3.14 0 l2.92 6.68 z"/></g><g id="SvgjsG1030" featureKey="sloganFeature-0" transform="matrix(1.2763241579357665,0,0,1.2763241579357665,33.4684109496172,261.64837316676136)" fill="#000"><path d="M6.18 6 c3.14 0 5.22 1.9 5.22 4.82 c0 2.88 -2.08 4.6 -5.22 4.6 l-1.76 0 l0 4.58 l-3.22 0 l0 -14 l4.98 0 z M5.98 12.68 c1.3 0 2.2 -0.46 2.2 -1.86 c0 -1.38 -0.9 -1.86 -2.2 -1.86 l-1.56 0 l0 3.72 l1.56 0 z M20.6 9.6 l3.16 0 l0 10.4 l-3.16 0 l0 -1.04 c-0.14 0.36 -1.08 1.24 -2.68 1.24 c-2.38 0 -5.12 -1.7 -5.12 -5.42 c0 -3.58 2.74 -5.36 5.12 -5.36 c1.6 0 2.54 0.92 2.68 1.14 l0 -0.96 z M18.38 17.42 c1.3 0 2.36 -0.9 2.36 -2.64 c0 -1.68 -1.06 -2.58 -2.36 -2.58 c-1.36 0 -2.52 0.92 -2.52 2.58 c0 1.72 1.16 2.64 2.52 2.64 z M34.24 9.56 l3.14 0 l-6.36 14.24 l-3.16 0 l1.92 -4.16 l-4.5 -10.08 l3.14 0 l2.92 6.68 z M58.24 12.46 c0.68 4.76 -2.38 7.74 -6.18 7.74 c-4.02 0 -7.28 -2.94 -7.28 -7.2 s3.32 -7.2 7.28 -7.2 c1.88 0 3.52 0.6 4.74 1.66 l-1.94 2.18 c-0.7 -0.48 -1.64 -0.82 -2.6 -0.82 c-2.46 0 -4.12 1.76 -4.12 4.18 s1.6 4.18 3.92 4.18 c1.7 0 2.8 -0.52 3.22 -2 l-3.12 0 l0 -2.72 l6.08 0 z M63.38 5.859999999999999 l0 14.14 l-3.16 0 l0 -14.14 l3.16 0 z M70.58000000000001 9.42 c2.36 0 5.48 1.78 5.48 5.42 c0 3.66 -3.12 5.36 -5.48 5.36 s-5.48 -1.7 -5.48 -5.36 c0 -3.64 3.12 -5.42 5.48 -5.42 z M70.58000000000001 12.2 c-1.2 0 -2.42 0.92 -2.42 2.64 c0 1.66 1.22 2.58 2.42 2.58 s2.44 -0.92 2.44 -2.58 c0 -1.72 -1.24 -2.64 -2.44 -2.64 z M83.62 9.42 c2.38 0 5.12 1.78 5.12 5.36 c0 3.72 -2.74 5.42 -5.12 5.42 c-1.6 0 -2.54 -0.88 -2.68 -1.24 l0 1.04 l-3.16 0 l0 -10.4 l0 -3.74 l3.16 0 l0 4.7 c0.14 -0.22 1.08 -1.14 2.68 -1.14 z M83.16000000000001 17.42 c1.36 0 2.52 -0.92 2.52 -2.64 c0 -1.66 -1.16 -2.58 -2.52 -2.58 c-1.3 0 -2.36 0.9 -2.36 2.58 c0 1.74 1.06 2.64 2.36 2.64 z M97.94 9.6 l3.16 0 l0 10.4 l-3.16 0 l0 -1.04 c-0.14 0.36 -1.08 1.24 -2.68 1.24 c-2.38 0 -5.12 -1.7 -5.12 -5.42 c0 -3.58 2.74 -5.36 5.12 -5.36 c1.6 0 2.54 0.92 2.68 1.14 l0 -0.96 z M95.72 17.42 c1.3 0 2.36 -0.9 2.36 -2.64 c0 -1.68 -1.06 -2.58 -2.36 -2.58 c-1.36 0 -2.52 0.92 -2.52 2.58 c0 1.72 1.16 2.64 2.52 2.64 z M106.30000000000001 5.859999999999999 l0 14.14 l-3.16 0 l0 -14.14 l3.16 0 z M107.32000000000001 23.22 l1.96 -5.58 l2.62 0 l-1.84 5.58 l-2.74 0 z M123.72000000000001 5.76 c2.52 0 4.06 1.56 4.82 2.88 l-2.36 1.42 c-0.78 -1 -1.46 -1.46 -2.46 -1.46 c-0.86 0 -1.5 0.5 -1.5 1.2 c0 0.72 0.4 1.08 1.4 1.42 l0.94 0.34 c3.26 1.14 4.38 2.58 4.38 4.44 c0 2.92 -2.76 4.3 -5.16 4.3 c-2.56 0 -4.52 -1.52 -5.22 -3.46 l2.46 -1.32 c0.5 0.9 1.24 1.88 2.76 1.88 c1.04 0 1.82 -0.42 1.82 -1.36 c0 -0.86 -0.48 -1.26 -1.98 -1.82 l-0.8 -0.28 c-2.06 -0.74 -3.8 -1.72 -3.8 -4.28 c0 -2.28 2.16 -3.9 4.7 -3.9 z M135.72000000000003 17.36 c0.56 0 0.96 -0.08 1.4 -0.2 l0 2.62 c-0.44 0.2 -1.16 0.34 -2.22 0.34 c-1.74 0 -3.2 -0.58 -3.2 -3.78 l0 -4.14 l-1.46 0 l0 -2.6 l1.46 0 l0 -2.44 l3.16 0 l0 2.44 l2.22 0 l0 2.6 l-2.22 0 l0 4.14 c0 0.46 0.12 1.02 0.86 1.02 z M146.28000000000003 9.6 l3.16 0 l0 10.4 l-3.16 0 l0 -1.04 c-0.14 0.36 -1.08 1.24 -2.68 1.24 c-2.38 0 -5.12 -1.7 -5.12 -5.42 c0 -3.58 2.74 -5.36 5.12 -5.36 c1.6 0 2.54 0.92 2.68 1.14 l0 -0.96 z M144.06000000000003 17.42 c1.3 0 2.36 -0.9 2.36 -2.64 c0 -1.68 -1.06 -2.58 -2.36 -2.58 c-1.36 0 -2.52 0.92 -2.52 2.58 c0 1.72 1.16 2.64 2.52 2.64 z M159.92000000000004 9.56 l3.14 0 l-6.36 14.24 l-3.16 0 l1.92 -4.16 l-4.5 -10.08 l3.14 0 l2.92 6.68 z M173.98000000000002 17.04 l5.32 0 l0 2.96 l-8.54 0 l0 -14 l3.22 0 l0 11.04 z M186.28000000000003 9.42 c2.36 0 5.48 1.78 5.48 5.42 c0 3.66 -3.12 5.36 -5.48 5.36 s-5.48 -1.7 -5.48 -5.36 c0 -3.64 3.12 -5.42 5.48 -5.42 z M186.28000000000003 12.2 c-1.2 0 -2.42 0.92 -2.42 2.64 c0 1.66 1.22 2.58 2.42 2.58 s2.44 -0.92 2.44 -2.58 c0 -1.72 -1.24 -2.64 -2.44 -2.64 z M198.60000000000002 9.42 c1.9 0 3.5 0.8 4.48 2.48 l-2.4 1.14 c-0.52 -0.44 -0.94 -0.84 -2.04 -0.84 c-1.2 0 -2.42 0.92 -2.42 2.62 c0 1.68 1.22 2.56 2.42 2.56 c1.1 0 1.52 -0.36 2.04 -0.8 l2.44 1.14 c-1.02 1.68 -2.58 2.44 -4.52 2.44 c-2.32 0 -5.44 -1.66 -5.44 -5.34 c0 -3.62 3.12 -5.4 5.44 -5.4 z M212.22000000000003 9.6 l3.16 0 l0 10.4 l-3.16 0 l0 -1.04 c-0.14 0.36 -1.08 1.24 -2.68 1.24 c-2.38 0 -5.12 -1.7 -5.12 -5.42 c0 -3.58 2.74 -5.36 5.12 -5.36 c1.6 0 2.54 0.92 2.68 1.14 l0 -0.96 z M210.00000000000003 17.42 c1.3 0 2.36 -0.9 2.36 -2.64 c0 -1.68 -1.06 -2.58 -2.36 -2.58 c-1.36 0 -2.52 0.92 -2.52 2.58 c0 1.72 1.16 2.64 2.52 2.64 z M220.58000000000004 5.859999999999999 l0 14.14 l-3.16 0 l0 -14.14 l3.16 0 z"/></g>
			</g>
		</svg>
	