<?xml version="1.0" encoding="UTF-8"?>
<!DOCTYPE svg PUBLIC "-//W3C//DTD SVG 1.1//EN" "http://www.w3.org/Graphics/SVG/1.1/DTD/svg11.dtd">
<svg xmlns="http://www.w3.org/2000/svg" version="1.1" width="512px" height="512px" style="shape-rendering:geometricPrecision; text-rendering:geometricPrecision; image-rendering:optimizeQuality; fill-rule:evenodd; clip-rule:evenodd" xmlns:xlink="http://www.w3.org/1999/xlink">
<g><path style="opacity:0.978" fill="#29abe2" d="M 431.5,31.5 C 455.186,29.2511 471.019,39.2511 479,61.5C 479.667,67.5 479.667,73.5 479,79.5C 471.201,99.7595 462.868,119.76 454,139.5C 444.338,111.184 427.171,88.684 402.5,72C 392.533,66.1829 382.2,61.1829 371.5,57C 391.444,48.1912 411.444,39.6912 431.5,31.5 Z"/></g>
<g><path style="opacity:0.987" fill="#29abe2" d="M 321.5,67.5 C 367.923,64.2962 403.757,81.9629 429,120.5C 446.39,153.365 448.057,187.031 434,221.5C 407.985,269.424 367.819,289.591 313.5,282C 259.073,267.332 230.073,231.832 226.5,175.5C 231.326,115.684 262.993,79.6845 321.5,67.5 Z M 332.5,104.5 C 338.326,103.489 341.826,105.822 343,111.5C 343.498,114.817 343.665,118.15 343.5,121.5C 353.172,121.334 362.839,121.5 372.5,122C 377.143,124.072 378.643,127.572 377,132.5C 375.786,134.049 374.286,135.215 372.5,136C 362.839,136.5 353.172,136.666 343.5,136.5C 343.5,146.833 343.5,157.167 343.5,167.5C 364.031,168.202 375.365,178.702 377.5,199C 374.842,218.824 363.509,228.99 343.5,229.5C 344.102,235.024 343.102,240.19 340.5,245C 335.814,247.529 331.981,246.696 329,242.5C 327.71,238.27 327.21,233.936 327.5,229.5C 317.828,229.666 308.161,229.5 298.5,229C 291.833,224.333 291.833,219.667 298.5,215C 308.161,214.5 317.828,214.334 327.5,214.5C 327.5,204.167 327.5,193.833 327.5,183.5C 306.969,182.798 295.635,172.298 293.5,152C 296.158,132.176 307.491,122.01 327.5,121.5C 327.023,116.258 327.856,111.258 330,106.5C 330.995,105.934 331.828,105.267 332.5,104.5 Z"/></g>
<g><path style="opacity:0.993" fill="#29abe2" d="M 224.5,116.5 C 225.376,116.369 226.043,116.702 226.5,117.5C 199.636,176.208 209.97,227.375 257.5,271C 299.964,303.64 345.297,308.14 393.5,284.5C 393.833,284.833 394.167,285.167 394.5,285.5C 370.488,344.702 345.988,403.702 321,462.5C 308.382,478.702 292.215,483.535 272.5,477C 266.353,474.508 261.186,470.674 257,465.5C 228.872,422.741 200.372,380.241 171.5,338C 129.5,310 87.5,282 45.5,254C 31.4347,241.12 27.6014,225.62 34,207.5C 37.0651,200.204 41.8985,194.371 48.5,190C 107.145,165.182 165.812,140.682 224.5,116.5 Z"/></g>
<g><path style="opacity:0.959" fill="#29abe2" d="M 319.5,136.5 C 322.167,136.5 324.833,136.5 327.5,136.5C 327.5,147.167 327.5,157.833 327.5,168.5C 311.84,167.673 306.007,159.673 310,144.5C 312.362,140.755 315.528,138.089 319.5,136.5 Z"/></g>
<g><path style="opacity:0.959" fill="#28abe2" d="M 343.5,182.5 C 359.149,183.318 364.982,191.318 361,206.5C 357.021,213.071 351.188,215.737 343.5,214.5C 343.5,203.833 343.5,193.167 343.5,182.5 Z"/></g>
<g><path style="opacity:0.964" fill="#29a9e3" d="M 98.5,315.5 C 107.214,316.595 110.048,321.262 107,329.5C 87.1667,349.333 67.3333,369.167 47.5,389C 40.1232,391.978 35.4565,389.645 33.5,382C 33.9095,379.679 34.7428,377.513 36,375.5C 55.1667,356.333 74.3333,337.167 93.5,318C 95.3146,317.243 96.9812,316.41 98.5,315.5 Z"/></g>
<g><path style="opacity:0.974" fill="#29aae2" d="M 139.5,359.5 C 150.039,358.915 153.539,363.581 150,373.5C 120.833,402.667 91.6667,431.833 62.5,461C 57.2712,463.621 52.7712,462.788 49,458.5C 48.1834,455.036 48.5167,451.702 50,448.5C 79.7283,418.605 109.562,388.938 139.5,359.5 Z"/></g>
<g><path style="opacity:0.944" fill="#29a9e3" d="M 184.5,402.5 C 194.527,403.409 197.36,408.409 193,417.5C 173.833,436.667 154.667,455.833 135.5,475C 127.586,479.374 122.586,477.207 120.5,468.5C 120.577,466.701 121.077,465.034 122,463.5C 142.448,442.549 163.282,422.216 184.5,402.5 Z"/></g>
</svg>
