<svg fill="none" height="60" viewBox="0 0 225 60" width="225" xmlns="http://www.w3.org/2000/svg"><path d="m73.075 15.04h4.92l11.16 27.96h-5.16l-2.56-6.44h-11.84l-2.52 6.44h-5.2zm6.96 17.32-4.52-11.88-4.52 11.88zm24.872 10.64c-3.12 0-5.8538-.5733-8.2004-1.72-2.32-1.1467-4.12-2.7867-5.4-4.92-1.2534-2.1333-1.88-4.6133-1.88-7.44 0-2.8533.64-5.3733 1.92-7.56 1.3066-2.2133 3.08-3.92 5.32-5.12 2.2666-1.2 4.8004-1.8 7.6004-1.8 2.773 0 5.28.6 7.52 1.8 2.266 1.2 4.04 2.9067 5.32 5.12 1.306 2.1867 1.96 4.7067 1.96 7.56 0 1.92-.427 3.76-1.28 5.52-.854 1.7333-1.96 3.1067-3.32 4.12h5.12v4.44zm-.64-4.6c2.96 0 5.306-.8267 7.04-2.48 1.76-1.6533 2.64-3.9867 2.64-7 0-1.9733-.427-3.7067-1.28-5.2-.854-1.4933-2.014-2.64-3.48-3.44-1.467-.8-3.107-1.2-4.92-1.2-1.814 0-3.467.4-4.9604 1.2-1.4667.8-2.6267 1.9467-3.48 3.44-.8534 1.4933-1.28 3.2267-1.28 5.2 0 3.04.8666 5.3867 2.6 7.04 1.76 1.6267 4.1334 2.44 7.1204 2.44zm18.238-23.36h5.08v27.96h-5.08zm9.583 0h5.08v23.76h13.44v4.2h-18.52z" fill="#2c3590"/><path d="m153.506 15.04h11.2c3.067 0 5.52.8133 7.36 2.44 1.867 1.6267 2.8 3.8533 2.8 6.68 0 2.9333-.92 5.1733-2.76 6.72-1.84 1.52-4.32 2.28-7.44 2.28h-6.08v9.84h-5.08zm10.56 13.92c3.814 0 5.72-1.6 5.72-4.8 0-3.28-1.906-4.92-5.72-4.92h-5.48v9.72zm20.126-13.92h4.92l11.16 27.96h-5.16l-2.56-6.44h-11.84l-2.52 6.44h-5.2zm6.96 17.32-4.52-11.88-4.52 11.88zm16.778 0-10.16-17.32h5.4l7.2 12.44 7.4-12.44h5.36l-10.36 17.32v10.64h-4.84z" fill="#f1592a"/><rect fill="#2a3890" height="44" rx="6" width="52" y="4"/><path d="m29 26c0-5.5228 4.4772-10 10-10h13v20h-13c-5.5228 0-10-4.4772-10-10z" fill="#fff"/><path d="m32 26c0-3.866 3.134-7 7-7h15c1.1046 0 2 .8954 2 2v10c0 1.1046-.8954 2-2 2h-15c-3.866 0-7-3.134-7-7z" fill="#f1592a"/><circle cx="39" cy="26" fill="#fff" r="4"/><path d="m6 26.234 14-3.234-7.875 19" stroke="#f1592a" stroke-width="3"/><path d="m6 30.8571 17-3.8571-4.8571 15" stroke="#f1592a" stroke-width="3"/><rect height="33" rx="4.5" stroke="#fff" stroke-dasharray="2 2" width="41" x="5.5" y="9.5"/></svg>