<svg width="48" height="48" viewBox="0 0 48 48" fill="none" xmlns="http://www.w3.org/2000/svg">
<circle cx="23.6795" cy="23.6796" r="21" transform="rotate(7.8763 23.6795 23.6796)" fill="#2D3D9C"/>
<path d="M19.2967 35.4278C19.1668 35.1589 16.5567 31.0756 16.522 29.8161C16.4874 28.5567 15.1303 25.9851 16.8237 23.71C18.517 21.4349 20.3585 19.5985 22.1962 19.6018C24.0339 19.6051 25.5506 19.8149 27.0414 20.8158C28.5322 21.8166 29.8659 23.0467 29.8198 24.5878C29.783 25.8206 29.7985 27.359 29.8109 27.9741" stroke="white" stroke-linecap="round"/>
<path d="M23.4334 25.9118C22.809 27.2822 22.13 30.3457 24.4087 31.6358C26.6875 32.926 29.7704 33.7363 31.027 33.9802" stroke="white" stroke-linecap="round"/>
<path d="M26.0863 36.3671C23.8532 35.4997 19.4309 33.0842 19.6072 30.3611C19.8274 26.9572 18.8387 24.14 21.6393 23.5222C24.4399 22.9045 25.8209 22.8861 26.2732 24.7496C26.7256 26.6132 26.2354 29.8541 28.3497 30.2722C30.464 30.6903 32.8197 31.4769 33.5787 29.6135C34.3378 27.75 35.0553 22.8653 32.0104 19.5122C28.8507 16.0329 24.1642 15.5369 19.8199 16.4437C15.8756 17.267 11.747 24.3735 12.039 27.0944" stroke="white" stroke-linecap="round"/>
<path d="M13.0348 17.6621C15.3963 15.8602 21.2434 12.5634 25.7401 13.7904C31.3609 15.3241 31.805 16.0577 33.3646 17.8278C34.6123 19.2439 35.3127 20.6319 35.5069 21.1489" stroke="white" stroke-linecap="round"/>
<path d="M17.2534 10.9479C19.812 10.161 25.7571 9.09911 29.0688 11.1459" stroke="white" stroke-linecap="round"/>
</svg>
