<svg width="58" height="58" viewBox="0 0 58 58" fill="none" xmlns="http://www.w3.org/2000/svg">
<linearGradient id="paint0_linear_34_66" x1="29" y1="8.64267e-07" x2="58" y2="73" gradientUnits="userSpaceOnUse">
<stop stop-color="#30F838"/>
<stop offset="1" stop-color="#539956"/>
</linearGradient>
<circle cx="29" cy="29" r="29" fill="url(#paint0_linear_34_66)"/>
<path d="M48.3536 20.3536C48.5488 20.1583 48.5488 19.8417 48.3536 19.6464L45.1716 16.4645C44.9763 16.2692 44.6597 16.2692 44.4645 16.4645C44.2692 16.6597 44.2692 16.9763 44.4645 17.1716L47.2929 20L44.4645 22.8284C44.2692 23.0237 44.2692 23.3403 44.4645 23.5355C44.6597 23.7308 44.9763 23.7308 45.1716 23.5355L48.3536 20.3536ZM35 20.5L48 20.5V19.5L35 19.5V20.5Z" fill="white"/>
<path d="M8.64645 35.6464C8.45119 35.8417 8.45119 36.1583 8.64645 36.3536L11.8284 39.5355C12.0237 39.7308 12.3403 39.7308 12.5355 39.5355C12.7308 39.3403 12.7308 39.0237 12.5355 38.8284L9.70711 36L12.5355 33.1716C12.7308 32.9763 12.7308 32.6597 12.5355 32.4645C12.3403 32.2692 12.0237 32.2692 11.8284 32.4645L8.64645 35.6464ZM31 35.5H9V36.5H31V35.5Z" fill="white"/>
<g filter="url(#filter0_d_34_66)">
<circle cx="29" cy="29" r="15" fill="#3BD942"/>
<circle cx="29" cy="29" r="14.5" stroke="white"/>
</g>
<path d="M35 20H26.8571C24.7269 20 23 21.7269 23 23.8571V23.8571C23 25.9874 24.7269 27.7143 26.8571 27.7143H30.8571C33.1452 27.7143 35 29.5691 35 31.8571V31.8571C35 34.1452 33.1452 36 30.8571 36H23" stroke="white"/>
<path d="M29.5 17V39" stroke="white" stroke-linecap="round"/>
<defs>
<filter id="filter0_d_34_66" x="10" y="14" width="38" height="38" filterUnits="userSpaceOnUse" color-interpolation-filters="sRGB">
<feFlood flood-opacity="0" result="BackgroundImageFix"/>
<feColorMatrix in="SourceAlpha" type="matrix" values="0 0 0 0 0 0 0 0 0 0 0 0 0 0 0 0 0 0 127 0" result="hardAlpha"/>
<feOffset dy="4"/>
<feGaussianBlur stdDeviation="2"/>
<feColorMatrix type="matrix" values="0 0 0 0 0 0 0 0 0 0 0 0 0 0 0 0 0 0 0.08 0"/>
<feBlend mode="normal" in2="BackgroundImageFix" result="effect1_dropShadow_34_66"/>
<feBlend mode="normal" in="SourceGraphic" in2="effect1_dropShadow_34_66" result="shape"/>
</filter>
</defs>
</svg>
