<svg width="58" height="58" viewBox="0 0 58 58" fill="none" xmlns="http://www.w3.org/2000/svg">
<linearGradient id="paint0_linear_34_58" x1="29" y1="-5.51343e-07" x2="47.5" y2="56" gradientUnits="userSpaceOnUse">
<stop stop-color="#FF6B00"/>
<stop offset="0.841839" stop-color="#C86810"/>
</linearGradient>
<circle cx="29" cy="29" r="29" fill="url(#paint0_linear_34_58)"/>
<rect x="19.5" y="11.5" width="19" height="33" rx="4.5" stroke="white"/>
<path d="M44.3536 15.3536C44.5488 15.1583 44.5488 14.8417 44.3536 14.6464L41.1716 11.4645C40.9763 11.2692 40.6597 11.2692 40.4645 11.4645C40.2692 11.6597 40.2692 11.9763 40.4645 12.1716L43.2929 15L40.4645 17.8284C40.2692 18.0237 40.2692 18.3403 40.4645 18.5355C40.6597 18.7308 40.9763 18.7308 41.1716 18.5355L44.3536 15.3536ZM30 15.5H44V14.5H30V15.5Z" fill="white"/>
<path d="M29.6464 20.6464C29.4512 20.8417 29.4512 21.1583 29.6464 21.3536L32.8284 24.5355C33.0237 24.7308 33.3403 24.7308 33.5355 24.5355C33.7308 24.3403 33.7308 24.0237 33.5355 23.8284L30.7071 21L33.5355 18.1716C33.7308 17.9763 33.7308 17.6597 33.5355 17.4645C33.3403 17.2692 33.0237 17.2692 32.8284 17.4645L29.6464 20.6464ZM44 20.5H30V21.5H44V20.5Z" fill="white"/>
<line x1="19" y1="36.5" x2="39" y2="36.5" stroke="white"/>
<circle cx="30" cy="41" r="1.5" stroke="white"/>
<path d="M31.851 30.517C31.851 30.933 31.747 31.3317 31.539 31.713C31.331 32.0857 31.0233 32.3977 30.616 32.649C30.2173 32.9003 29.7363 33.0433 29.173 33.078V34.131H28.471V33.078C27.6823 33.0087 27.041 32.7573 26.547 32.324C26.053 31.882 25.8017 31.323 25.793 30.647H27.054C27.0887 31.011 27.223 31.3273 27.457 31.596C27.6997 31.8647 28.0377 32.0337 28.471 32.103V28.853C27.8903 28.7057 27.4223 28.554 27.067 28.398C26.7117 28.242 26.4083 27.9993 26.157 27.67C25.9057 27.3407 25.78 26.8987 25.78 26.344C25.78 25.642 26.0227 25.0613 26.508 24.602C27.002 24.1427 27.6563 23.887 28.471 23.835V22.756H29.173V23.835C29.9097 23.8957 30.5033 24.134 30.954 24.55C31.4047 24.9573 31.6647 25.4903 31.734 26.149H30.473C30.4297 25.8457 30.2953 25.5727 30.07 25.33C29.8447 25.0787 29.5457 24.914 29.173 24.836V28.008C29.745 28.1553 30.2087 28.307 30.564 28.463C30.928 28.6103 31.2313 28.8487 31.474 29.178C31.7253 29.5073 31.851 29.9537 31.851 30.517ZM26.989 26.279C26.989 26.7037 27.1147 27.0287 27.366 27.254C27.6173 27.4793 27.9857 27.6657 28.471 27.813V24.81C28.0203 24.8533 27.6607 25.0007 27.392 25.252C27.1233 25.4947 26.989 25.837 26.989 26.279ZM29.173 32.116C29.641 32.064 30.005 31.895 30.265 31.609C30.5337 31.323 30.668 30.9807 30.668 30.582C30.668 30.1573 30.538 29.8323 30.278 29.607C30.018 29.373 29.6497 29.1867 29.173 29.048V32.116Z" fill="white"/>
<defs>
</defs>
</svg>
