<svg width="123" height="123" viewBox="0 0 123 123" fill="none" xmlns="http://www.w3.org/2000/svg">
<circle cx="61.5" cy="61.5" r="61" fill="#D8DEFF" stroke="#2A3890" stroke-linecap="round" stroke-dasharray="4.8 4.8"/>
<rect x="36.8909" y="13.7353" width="54.6053" height="93.1499" rx="9.5" stroke="#2A3890"/>
<rect x="43.2097" y="33.9554" width="41.9677" height="53.3416" stroke="#2A3890"/>
<rect x="49.5286" y="21.9497" width="21.1157" height="3.42315" rx="1.71158" stroke="#2A3890"/>
<rect x="53.3198" y="95.2476" width="21.7476" height="3.42315" rx="1.71158" stroke="#2A3890"/>
<circle cx="76.1994" cy="23.9772" r="2.02751" stroke="#564AB1"/>
<rect x="-0.5" y="0.5" width="53" height="31" rx="1.5" transform="matrix(-1 0 0 1 60 51)" stroke="#2A3890"/>
<path d="M16.4533 54.6065L51.9377 54.3205C52.8361 54.3133 53.5683 55.0396 53.5683 55.9381C53.5683 56.6947 54.0927 57.3502 54.8309 57.5163L55.0896 57.5745C55.979 57.7746 56.6108 58.5644 56.6108 59.476V74.3646C56.6108 75.3164 55.8392 76.088 54.8874 76.088C54.109 76.088 53.4271 76.6099 53.2238 77.3614L53.1811 77.5193C52.9526 78.364 52.1862 78.9506 51.3111 78.9506H16.731C15.6719 78.9506 14.7325 78.2705 14.4019 77.2643L14.3219 77.0205C14.1292 76.4341 13.6695 75.9741 13.0832 75.7811C12.2861 75.5186 11.7475 74.7742 11.7475 73.935V59.454C11.7475 58.5501 12.3615 57.7617 13.2379 57.5403L13.3302 57.517C14.0182 57.3433 14.543 56.7865 14.6757 56.0895C14.8386 55.2344 15.5829 54.6135 16.4533 54.6065Z" fill="white" stroke="#2A3890"/>
<path d="M49.9288 60H41.6433M53.0171 66.048H41.6433M49.9288 72.0057H41.6433" stroke="#2A3890"/>
<path d="M19.2304 70H25.2144M17 66.1802H25.2144M19.2304 62.4175H25.2144" stroke="#2A3890"/>
<path d="M26.7807 66.629C26.7807 70.7345 29.9707 74.0275 33.8633 74.0275C37.7558 74.0275 40.9458 70.7345 40.9458 66.629C40.9458 62.5235 37.7558 59.2305 33.8633 59.2305C29.9707 59.2305 26.7807 62.5235 26.7807 66.629Z" stroke="#2A3890"/>
<circle cx="91.3643" cy="49.2524" r="22.2476" fill="white" stroke="#2A3890"/>
<circle cx="91.6439" cy="40.8621" r="8.36215" stroke="#2A3890"/>
<path d="M75.5107 61.149C75.7725 55.0297 80.8163 50.149 87 50.149H97C103.184 50.149 108.228 55.0297 108.489 61.149H75.5107Z" stroke="#2A3890"/>
<circle cx="106.809" cy="66.7692" r="8.36215" fill="white" stroke="#2A3890"/>
<path d="M106.793 61.649V71.5146" stroke="#2A3890"/>
<path d="M111.48 66.4652L102 66.4927" stroke="#2A3890"/>
</svg>
